Genre:Action | Drama | Thriller
Language:English
IMDb:http://www.imdb.com/title/tt1243957/
Source:DVD5/Audio:T0XiC-iNK Thx.
Subtitles:Romana


Format : MPEG-4
Format profile : Base Media
Codec ID : isom
File size : 913 MiB
Duration : 1h 39mn
Overall bit rate : 1 285 Kbps
Movie name : The Tourist.2010 R5 LINE x264 Feel-Free


Video
Format settings, CABAC : Yes
Format settings, ReFrames : 4 frames
Codec ID : avc1
Codec ID/Info : Advanced Video Coding
Duration : 1h 39mn
Bit rate mode : Variable
Bit rate : 899 Kbps
Width : 720 pixels
Height : 304 pixels
Display aspect ratio : 2.35:1
Frame rate mode : Constant
Frame rate : 25.000 fps
Color space : YUV
Chroma subsampling : 4:2:0
Bit depth : 8 bits
Scan type : Progressive
Bits/(Pixel*Frame) : 0.164
Stream size : 636 MiB (70%)
Writing library : x264

Audio
ID : 2
Format : AAC
Format/Info : Advanced Audio Codec
Format version : Version 4
Format profile : LC
Codec ID : 40
Duration : 1h 39mn
Bit rate mode : Variable
Bit rate : 384 Kbps
Channel(s) : 6 channels
Channel positions : Front: L C R, Side: L R, LFE
Sampling rate : 48.0 KHz
Stream size : 273 MiB (30%)



Plot:
Revolves around Frank, an American tourist visiting Italy to mend a broken heart. Elise is an extraordinary woman who deliberately crosses his path
 
http://www.rapidhdd.com/images/34493vlcsnap-00005.png
 
http://www.rapidhdd.com/images/277805vlcsnap-00007.png
 
http://www.rapidhdd.com/images/832414vlcsnap-00008.png
 
http://www.rapidhdd.com/images/254741vlcsnap-00004.png
 
http://www.rapidhdd.com/images/665109vlcsnap-00002.png
 
http://rapidhdd.com/images/328690vlcsnap-00001.png